<?xml version="1.0" encoding="UTF-8" standalone="no"?>
<svg
   xmlns:dc="http://purl.org/dc/elements/1.1/"
   xmlns:cc="http://creativecommons.org/ns#"
   xmlns:rdf="http://www.w3.org/1999/02/22-rdf-syntax-ns#"
   xmlns:svg="http://www.w3.org/2000/svg"
   xmlns="http://www.w3.org/2000/svg"
   xmlns:sodipodi="http://sodipodi.sourceforge.net/DTD/sodipodi-0.dtd"
   xmlns:inkscape="http://www.inkscape.org/namespaces/inkscape"
   sodipodi:docname="top-bottom-extreme.svg"
   viewBox="0 0 514.12907 627.47066"
   height="166.01828mm"
   width="136.02998mm"
   xml:space="preserve"
   id="svg2"
   version="1.1"
   inkscape:version="1.0.1 (3bc2e813f5, 2020-09-07)"><metadata
     id="metadata8"><rdf:RDF><cc:Work
         rdf:about=""><dc:format>image/svg+xml</dc:format><dc:type
           rdf:resource="http://purl.org/dc/dcmitype/StillImage" /><dc:title></dc:title></cc:Work></rdf:RDF></metadata><defs
     id="defs6"><clipPath
       id="clipPath18"
       clipPathUnits="userSpaceOnUse"><path
         id="path16"
         d="M 0,595.276 H 841.89 V 0 H 0 Z" /></clipPath><clipPath
       id="clipPath66"
       clipPathUnits="userSpaceOnUse"><path
         id="path64"
         d="M 0,595.276 H 841.89 V 0 H 0 Z" /></clipPath><clipPath
       id="clipPath642"
       clipPathUnits="userSpaceOnUse"><path
         id="path640"
         d="M 0,595.276 H 841.89 V 0 H 0 Z" /></clipPath></defs><sodipodi:namedview
     id="namedview4"
     inkscape:window-height="1056"
     inkscape:window-width="1916"
     inkscape:pageshadow="2"
     inkscape:pageopacity="0"
     guidetolerance="10"
     gridtolerance="10"
     objecttolerance="10"
     borderopacity="1"
     bordercolor="#666666"
     pagecolor="#ffffff"
     inkscape:document-rotation="0"
     showgrid="false"
     inkscape:document-units="mm"
     fit-margin-top="0"
     fit-margin-left="0"
     fit-margin-right="0"
     fit-margin-bottom="0"
     inkscape:zoom="0.66168018"
     inkscape:cx="-118.54824"
     inkscape:cy="1.7461979"
     inkscape:window-x="0"
     inkscape:window-y="20"
     inkscape:window-maximized="0"
     inkscape:current-layer="g10"
     units="mm" /><g
     transform="matrix(1.3333333,0,0,-1.3333333,-572.16532,767.43051)"
     inkscape:label="top-bottom"
     inkscape:groupmode="layer"
     id="g10"><path
       id="path70"
       style="fill:none;stroke:#0000ff;stroke-width:0.003;stroke-linecap:round;stroke-linejoin:round;stroke-miterlimit:10;stroke-dasharray:none;stroke-opacity:1"
       d="m 430.79211,297.30052 c -0.433,-0.752 -0.655,-1.606 -0.644,-2.474" /><path
       id="path74"
       style="fill:none;stroke:#0000ff;stroke-width:0.003;stroke-linecap:round;stroke-linejoin:round;stroke-miterlimit:10;stroke-dasharray:none;stroke-opacity:1"
       d="m 473.74721,363.38552 c -1.8,1.213 -4.243,0.737 -5.457,-1.062 -0.002,-0.005 -0.005,-0.009 -0.008,-0.014" /><path
       id="path78"
       style="fill:none;stroke:#0000ff;stroke-width:0.003;stroke-linecap:round;stroke-linejoin:round;stroke-miterlimit:10;stroke-dasharray:none;stroke-opacity:1"
       d="m 514.26571,339.96852 c 0.605,-0.183 1.227,-0.306 1.855,-0.367" /><path
       id="path82"
       style="fill:none;stroke:#0000ff;stroke-width:0.003;stroke-linecap:round;stroke-linejoin:round;stroke-miterlimit:10;stroke-dasharray:none;stroke-opacity:1"
       d="m 468.28821,362.30642 -37.498,-65.002" /><path
       id="path86"
       style="fill:none;stroke:#0000ff;stroke-width:0.003;stroke-linecap:round;stroke-linejoin:round;stroke-miterlimit:10;stroke-dasharray:none;stroke-opacity:1"
       d="m 514.26721,339.96462 -40.514,23.414" /><path
       id="path90"
       style="fill:none;stroke:#0000ff;stroke-width:0.003;stroke-linecap:round;stroke-linejoin:round;stroke-miterlimit:10;stroke-dasharray:none;stroke-opacity:1"
       d="m 620.07141,326.07592 -103.946,13.521" /><path
       id="path94"
       style="fill:none;stroke:#0000ff;stroke-width:0.003;stroke-linecap:round;stroke-linejoin:round;stroke-miterlimit:10;stroke-dasharray:none;stroke-opacity:1"
       d="m 621.07141,325.66382 c -0.266,0.266 -0.626,0.415 -1.002,0.415" /><path
       id="path98"
       style="fill:none;stroke:#0000ff;stroke-width:0.003;stroke-linecap:round;stroke-linejoin:round;stroke-miterlimit:10;stroke-dasharray:none;stroke-opacity:1"
       d="m 650.95711,301.69129 -29.885,23.96623"
       sodipodi:nodetypes="cc" /><path
       id="path102"
       style="fill:none;stroke:#0000ff;stroke-width:0.003;stroke-linecap:round;stroke-linejoin:round;stroke-miterlimit:10;stroke-dasharray:none;stroke-opacity:1"
       d="m 488.97371,119.85332 v 3.543" /><path
       id="path106"
       style="fill:none;stroke:#0000ff;stroke-width:0.003;stroke-linecap:round;stroke-linejoin:round;stroke-miterlimit:10;stroke-dasharray:none;stroke-opacity:1"
       d="m 488.96741,119.85812 c 0,-0.782 0.634,-1.417 1.417,-1.417" /><path
       id="path110"
       style="fill:none;stroke:#0000ff;stroke-width:0.003;stroke-linecap:round;stroke-linejoin:round;stroke-miterlimit:10;stroke-dasharray:none;stroke-opacity:1"
       d="m 488.96741,123.40212 c 0,0.782 -0.634,1.417 -1.417,1.417 v 0" /><path
       id="path114"
       style="fill:none;stroke:#0000ff;stroke-width:0.003;stroke-linecap:round;stroke-linejoin:round;stroke-miterlimit:10;stroke-dasharray:none;stroke-opacity:1"
       d="m 431.56851,124.81422 h 55.987" /><path
       id="path118"
       style="fill:none;stroke:#0000ff;stroke-width:0.003;stroke-linecap:round;stroke-linejoin:round;stroke-miterlimit:10;stroke-dasharray:none;stroke-opacity:1"
       d="m 650.95711,301.69129 c 0.266,-0.267 0.626,-0.416 1.002,-0.416" /><path
       id="path122"
       style="fill:none;stroke:#0000ff;stroke-width:0.003;stroke-linecap:round;stroke-linejoin:round;stroke-miterlimit:10;stroke-dasharray:none;stroke-opacity:1"
       d="m 809.28183,299.85829 c 0,0.783 -0.635,1.417 -1.417,1.417" /><path
       id="path126"
       style="fill:none;stroke:#0000ff;stroke-width:0.003;stroke-linecap:round;stroke-linejoin:round;stroke-miterlimit:10;stroke-dasharray:none;stroke-opacity:1"
       d="m 807.86443,141.82699 c 0.783,0 1.417,0.635 1.417,1.417" /><path
       id="path130"
       style="fill:none;stroke:#0000ff;stroke-width:0.003;stroke-linecap:round;stroke-linejoin:round;stroke-miterlimit:10;stroke-dasharray:none;stroke-opacity:1"
       d="m 702.98301,141.82699 c -0.783,0 -1.417,-0.634 -1.418,-1.417" /><path
       id="path134"
       style="fill:none;stroke:#0000ff;stroke-width:0.003;stroke-linecap:round;stroke-linejoin:round;stroke-miterlimit:10;stroke-dasharray:none;stroke-opacity:1"
       d="m 700.14811,111.35422 c 0.783,0.001 1.417,0.635 1.417,1.417" /><path
       id="path138"
       style="fill:none;stroke:#0000ff;stroke-width:0.003;stroke-linecap:round;stroke-linejoin:round;stroke-miterlimit:10;stroke-dasharray:none;stroke-opacity:1"
       d="m 649.12461,111.35422 c -0.783,0.001 -1.417,-0.634 -1.417,-1.417" /><path
       id="path142"
       style="fill:none;stroke:#0000ff;stroke-width:0.003;stroke-linecap:round;stroke-linejoin:round;stroke-miterlimit:10;stroke-dasharray:none;stroke-opacity:1"
       d="m 646.29011,104.97632 c 0.783,0 1.417,0.635 1.417,1.418" /><path
       id="path146"
       style="fill:none;stroke:#0000ff;stroke-width:0.003;stroke-linecap:round;stroke-linejoin:round;stroke-miterlimit:10;stroke-dasharray:none;stroke-opacity:1"
       d="m 596.68371,106.39432 c 0,-0.783 0.634,-1.418 1.417,-1.418" /><path
       id="path150"
       style="fill:none;stroke:#0000ff;stroke-width:0.003;stroke-linecap:round;stroke-linejoin:round;stroke-miterlimit:10;stroke-dasharray:none;stroke-opacity:1"
       d="m 596.68371,109.93722 c 0,0.782 -0.634,1.417 -1.417,1.417 h -10e-4" /><path
       id="path154"
       style="fill:none;stroke:#0000ff;stroke-width:0.003;stroke-linecap:round;stroke-linejoin:round;stroke-miterlimit:10;stroke-dasharray:none;stroke-opacity:1"
       d="m 542.82531,112.77122 c 0,-0.782 0.635,-1.416 1.417,-1.417" /><path
       id="path158"
       style="fill:none;stroke:#0000ff;stroke-width:0.003;stroke-linecap:round;stroke-linejoin:round;stroke-miterlimit:10;stroke-dasharray:none;stroke-opacity:1"
       d="m 542.82531,117.02422 c 0,0.782 -0.635,1.417 -1.417,1.417" /><path
       id="path162"
       style="fill:none;stroke:#0000ff;stroke-width:0.003;stroke-linecap:round;stroke-linejoin:round;stroke-miterlimit:10;stroke-dasharray:none;stroke-opacity:1"
       d="m 430.14851,126.23612 c 0,-0.782 0.634,-1.417 1.417,-1.417" /><path
       id="path166"
       style="fill:none;stroke:#0000ff;stroke-width:0.003;stroke-linecap:round;stroke-linejoin:round;stroke-miterlimit:10;stroke-dasharray:none;stroke-opacity:1"
       d="m 430.15001,126.23312 v 168.588" /><path
       id="path170"
       style="fill:none;stroke:#0000ff;stroke-width:0.003;stroke-linecap:round;stroke-linejoin:round;stroke-miterlimit:10;stroke-dasharray:none;stroke-opacity:1"
       d="M 651.96011,301.27329 H 807.86913" /><path
       id="path174"
       style="fill:none;stroke:#0000ff;stroke-width:0.003;stroke-linecap:round;stroke-linejoin:round;stroke-miterlimit:10;stroke-dasharray:none;stroke-opacity:1"
       d="m 809.28723,143.24099 v 156.614" /><path
       id="path178"
       style="fill:none;stroke:#0000ff;stroke-width:0.003;stroke-linecap:round;stroke-linejoin:round;stroke-miterlimit:10;stroke-dasharray:none;stroke-opacity:1"
       d="M 702.98641,141.82209 H 807.86843" /><path
       id="path182"
       style="fill:none;stroke:#0000ff;stroke-width:0.003;stroke-linecap:round;stroke-linejoin:round;stroke-miterlimit:10;stroke-dasharray:none;stroke-opacity:1"
       d="m 701.56801,112.76832 -0.003,27.64167"
       sodipodi:nodetypes="cc" /><path
       id="path186"
       style="fill:none;stroke:#0000ff;stroke-width:0.003;stroke-linecap:round;stroke-linejoin:round;stroke-miterlimit:10;stroke-dasharray:none;stroke-opacity:1"
       d="m 649.13051,111.35032 h 51.019" /><path
       id="path190"
       style="fill:none;stroke:#0000ff;stroke-width:0.003;stroke-linecap:round;stroke-linejoin:round;stroke-miterlimit:10;stroke-dasharray:none;stroke-opacity:1"
       d="m 647.71201,106.38942 v 3.543" /><path
       id="path194"
       style="fill:none;stroke:#0000ff;stroke-width:0.003;stroke-linecap:round;stroke-linejoin:round;stroke-miterlimit:10;stroke-dasharray:none;stroke-opacity:1"
       d="m 598.10411,104.97142 h 48.189" /><path
       id="path198"
       style="fill:none;stroke:#0000ff;stroke-width:0.003;stroke-linecap:round;stroke-linejoin:round;stroke-miterlimit:10;stroke-dasharray:none;stroke-opacity:1"
       d="m 596.68571,109.93242 v -3.543" /><path
       id="path202"
       style="fill:none;stroke:#0000ff;stroke-width:0.003;stroke-linecap:round;stroke-linejoin:round;stroke-miterlimit:10;stroke-dasharray:none;stroke-opacity:1"
       d="m 544.24821,111.35032 h 51.019" /><path
       id="path206"
       style="fill:none;stroke:#0000ff;stroke-width:0.003;stroke-linecap:round;stroke-linejoin:round;stroke-miterlimit:10;stroke-dasharray:none;stroke-opacity:1"
       d="m 542.82971,117.01632 v -4.248" /><path
       id="path210"
       style="fill:none;stroke:#0000ff;stroke-width:0.003;stroke-linecap:round;stroke-linejoin:round;stroke-miterlimit:10;stroke-dasharray:none;stroke-opacity:1"
       d="m 490.38491,118.43532 h 51.026" /><path
       id="path214"
       style="fill:none;stroke:#0000ff;stroke-width:0.003;stroke-linecap:butt;stroke-linejoin:miter;stroke-miterlimit:10;stroke-dasharray:none;stroke-opacity:1"
       d="m 814.7193,558.7413 v -166.545 c 0,-1.091 -1.181,-1.772 -2.126,-1.227 l -53.062,30.623 c -0.438,0.252 -0.708,0.72 -0.708,1.227 v 135.915 c 0,0.783 0.634,1.418 1.417,1.418 l 53.061,0.007 c 0.783,0 1.418,-0.635 1.418,-1.418 z" /><path
       id="path218"
       style="fill:none;stroke:#0000ff;stroke-width:0.003;stroke-linecap:butt;stroke-linejoin:miter;stroke-miterlimit:10;stroke-dasharray:none;stroke-opacity:1"
       d="m 749.438,417.3643 c 0.022,-0.75 0.392,-1.446 0.999,-1.885" /><path
       id="path222"
       style="fill:none;stroke:#0000ff;stroke-width:0.003;stroke-linecap:butt;stroke-linejoin:miter;stroke-miterlimit:10;stroke-dasharray:none;stroke-opacity:1"
       d="m 805.147,379.0548 c 1.213,1.8 0.737,4.243 -1.063,5.456 -0.004,0.003 -0.008,0.006 -0.013,0.009" /><path
       id="path226"
       style="fill:none;stroke:#0000ff;stroke-width:0.003;stroke-linecap:butt;stroke-linejoin:miter;stroke-miterlimit:10;stroke-dasharray:none;stroke-opacity:1"
       d="m 804.065,384.5274 -53.633,30.952" /><path
       id="path230"
       style="fill:none;stroke:#0000ff;stroke-width:0.003;stroke-linecap:butt;stroke-linejoin:miter;stroke-miterlimit:10;stroke-dasharray:none;stroke-opacity:1"
       d="m 764.6656,317.1573 c 1.8,-1.213 4.243,-0.737 5.456,1.062 0.003,0.005 0.006,0.009 0.009,0.014" /><path
       id="path234"
       style="fill:none;stroke:#0000ff;stroke-width:0.003;stroke-linecap:butt;stroke-linejoin:miter;stroke-miterlimit:10;stroke-dasharray:none;stroke-opacity:1"
       d="m 724.147,340.5743 c -0.605,0.184 -1.227,0.306 -1.855,0.367" /><path
       id="path238"
       style="fill:none;stroke:#0000ff;stroke-width:0.003;stroke-linecap:butt;stroke-linejoin:miter;stroke-miterlimit:10;stroke-dasharray:none;stroke-opacity:1"
       d="m 770.1246,318.2364 35.021,60.818" /><path
       id="path242"
       style="fill:none;stroke:#0000ff;stroke-width:0.003;stroke-linecap:butt;stroke-linejoin:miter;stroke-miterlimit:10;stroke-dasharray:none;stroke-opacity:1"
       d="m 724.1451,340.5782 40.515,-23.414" /><path
       id="path246"
       style="fill:none;stroke:#0000ff;stroke-width:0.003;stroke-linecap:butt;stroke-linejoin:miter;stroke-miterlimit:10;stroke-dasharray:none;stroke-opacity:1"
       d="m 618.3414,354.4669 103.946,-13.521" /><path
       id="path250"
       style="fill:none;stroke:#0000ff;stroke-width:0.003;stroke-linecap:butt;stroke-linejoin:miter;stroke-miterlimit:10;stroke-dasharray:none;stroke-opacity:1"
       d="m 617.3414,354.879 c 0.266,-0.266 0.626,-0.415 1.002,-0.415" /><path
       id="path254"
       style="fill:none;stroke:#0000ff;stroke-width:0.003;stroke-linecap:butt;stroke-linejoin:miter;stroke-miterlimit:10;stroke-dasharray:none;stroke-opacity:1"
       d="M 587.4556,378.85163 617.3407,354.8853"
       sodipodi:nodetypes="cc" /><path
       id="path258"
       style="fill:none;stroke:#0000ff;stroke-width:0.003;stroke-linecap:butt;stroke-linejoin:miter;stroke-miterlimit:10;stroke-dasharray:none;stroke-opacity:1"
       d="m 749.439,560.6896 -0.008,-143.323" /><path
       id="path262"
       style="fill:none;stroke:#0000ff;stroke-width:0.003;stroke-linecap:butt;stroke-linejoin:miter;stroke-miterlimit:10;stroke-dasharray:none;stroke-opacity:1"
       d="m 749.4449,560.6847 c 0.001,0.782 -0.634,1.417 -1.417,1.417" /><path
       id="path266"
       style="fill:none;stroke:#0000ff;stroke-width:0.003;stroke-linecap:butt;stroke-linejoin:miter;stroke-miterlimit:10;stroke-dasharray:none;stroke-opacity:1"
       d="m 587.4556,378.85163 c -0.266,0.267 -0.626,0.416 -1.002,0.416" /><path
       id="path270"
       style="fill:none;stroke:#0000ff;stroke-width:0.003;stroke-linecap:butt;stroke-linejoin:miter;stroke-miterlimit:10;stroke-dasharray:none;stroke-opacity:1"
       d="m 429.1304,380.68463 c 0,-0.783 0.635,-1.417 1.418,-1.417" /><path
       id="path274"
       style="fill:none;stroke:#0000ff;stroke-width:0.003;stroke-linecap:butt;stroke-linejoin:miter;stroke-miterlimit:10;stroke-dasharray:none;stroke-opacity:1"
       d="m 430.5484,538.71593 c -0.783,0 -1.417,-0.635 -1.418,-1.417" /><path
       id="path278"
       style="fill:none;stroke:#0000ff;stroke-width:0.003;stroke-linecap:butt;stroke-linejoin:miter;stroke-miterlimit:10;stroke-dasharray:none;stroke-opacity:1"
       d="m 535.4297,538.71593 c 0.783,0 1.417,0.634 1.418,1.417" /><path
       id="path282"
       style="fill:none;stroke:#0000ff;stroke-width:0.003;stroke-linecap:butt;stroke-linejoin:miter;stroke-miterlimit:10;stroke-dasharray:none;stroke-opacity:1"
       d="m 538.2642,569.1886 c -0.782,-10e-4 -1.417,-0.635 -1.417,-1.417" /><path
       id="path286"
       style="fill:none;stroke:#0000ff;stroke-width:0.003;stroke-linecap:butt;stroke-linejoin:miter;stroke-miterlimit:10;stroke-dasharray:none;stroke-opacity:1"
       d="m 589.2877,569.1886 c 0.783,-10e-4 1.418,0.634 1.418,1.417" /><path
       id="path290"
       style="fill:none;stroke:#0000ff;stroke-width:0.003;stroke-linecap:butt;stroke-linejoin:miter;stroke-miterlimit:10;stroke-dasharray:none;stroke-opacity:1"
       d="m 592.1226,575.5665 c -0.783,0 -1.417,-0.635 -1.417,-1.417" /><path
       id="path294"
       style="fill:none;stroke:#0000ff;stroke-width:0.003;stroke-linecap:butt;stroke-linejoin:miter;stroke-miterlimit:10;stroke-dasharray:none;stroke-opacity:1"
       d="m 641.7291,574.1495 c 0,0.782 -0.634,1.417 -1.417,1.417" /><path
       id="path298"
       style="fill:none;stroke:#0000ff;stroke-width:0.003;stroke-linecap:butt;stroke-linejoin:miter;stroke-miterlimit:10;stroke-dasharray:none;stroke-opacity:1"
       d="m 641.7291,570.6056 c 0,-0.782 0.634,-1.417 1.417,-1.417 h 10e-4" /><path
       id="path302"
       style="fill:none;stroke:#0000ff;stroke-width:0.003;stroke-linecap:butt;stroke-linejoin:miter;stroke-miterlimit:10;stroke-dasharray:none;stroke-opacity:1"
       d="m 695.5875,567.7716 c 0,0.782 -0.635,1.416 -1.417,1.417" /><path
       id="path306"
       style="fill:none;stroke:#0000ff;stroke-width:0.003;stroke-linecap:butt;stroke-linejoin:miter;stroke-miterlimit:10;stroke-dasharray:none;stroke-opacity:1"
       d="m 695.5875,563.5187 c 0,-0.782 0.635,-1.417 1.417,-1.417" /><path
       id="path310"
       style="fill:none;stroke:#0000ff;stroke-width:0.003;stroke-linecap:butt;stroke-linejoin:miter;stroke-miterlimit:10;stroke-dasharray:none;stroke-opacity:1"
       d="M 586.4527,379.26953 H 430.5437" /><path
       id="path314"
       style="fill:none;stroke:#0000ff;stroke-width:0.003;stroke-linecap:butt;stroke-linejoin:miter;stroke-miterlimit:10;stroke-dasharray:none;stroke-opacity:1"
       d="m 429.1255,537.30283 v -156.614" /><path
       id="path318"
       style="fill:none;stroke:#0000ff;stroke-width:0.003;stroke-linecap:butt;stroke-linejoin:miter;stroke-miterlimit:10;stroke-dasharray:none;stroke-opacity:1"
       d="M 535.4263,538.72073 H 430.5443" /><path
       id="path322"
       style="fill:none;stroke:#0000ff;stroke-width:0.003;stroke-linecap:butt;stroke-linejoin:miter;stroke-miterlimit:10;stroke-dasharray:none;stroke-opacity:1"
       d="m 536.8448,567.7745 0.003,-27.64157"
       sodipodi:nodetypes="cc" /><path
       id="path326"
       style="fill:none;stroke:#0000ff;stroke-width:0.003;stroke-linecap:butt;stroke-linejoin:miter;stroke-miterlimit:10;stroke-dasharray:none;stroke-opacity:1"
       d="m 589.2818,569.1925 h -51.019" /><path
       id="path330"
       style="fill:none;stroke:#0000ff;stroke-width:0.003;stroke-linecap:butt;stroke-linejoin:miter;stroke-miterlimit:10;stroke-dasharray:none;stroke-opacity:1"
       d="m 590.7007,574.1534 v -3.542" /><path
       id="path334"
       style="fill:none;stroke:#0000ff;stroke-width:0.003;stroke-linecap:butt;stroke-linejoin:miter;stroke-miterlimit:10;stroke-dasharray:none;stroke-opacity:1"
       d="m 640.3082,575.5714 h -48.189" /><path
       id="path338"
       style="fill:none;stroke:#0000ff;stroke-width:0.003;stroke-linecap:butt;stroke-linejoin:miter;stroke-miterlimit:10;stroke-dasharray:none;stroke-opacity:1"
       d="m 641.7271,570.6115 v 3.542" /><path
       id="path342"
       style="fill:none;stroke:#0000ff;stroke-width:0.003;stroke-linecap:butt;stroke-linejoin:miter;stroke-miterlimit:10;stroke-dasharray:none;stroke-opacity:1"
       d="m 694.1646,569.1925 h -51.02" /><path
       id="path346"
       style="fill:none;stroke:#0000ff;stroke-width:0.003;stroke-linecap:butt;stroke-linejoin:miter;stroke-miterlimit:10;stroke-dasharray:none;stroke-opacity:1"
       d="m 695.5826,563.5265 v 4.248" /><path
       id="path350"
       style="fill:none;stroke:#0000ff;stroke-width:0.003;stroke-linecap:butt;stroke-linejoin:miter;stroke-miterlimit:10;stroke-dasharray:none;stroke-opacity:1"
       d="m 748.0279,562.1075 h -51.026" /><path
       id="path646"
       style="fill:none;stroke:#ff0000;stroke-width:0.003;stroke-linecap:butt;stroke-linejoin:miter;stroke-miterlimit:10;stroke-dasharray:none;stroke-opacity:1"
       d="m 756.84093,244.99889 c -1.722,0 -3.118,1.396 -3.118,3.118 0,1.722 1.396,3.118 3.118,3.118 1.722,0 3.118,-1.396 3.118,-3.118 0,-1.722 -1.396,-3.118 -3.118,-3.118 z" /><path
       id="path650"
       style="fill:none;stroke:#ff0000;stroke-width:0.003;stroke-linecap:butt;stroke-linejoin:miter;stroke-miterlimit:10;stroke-dasharray:none;stroke-opacity:1"
       d="m 756.84093,191.84949 c -1.722,0 -3.118,1.396 -3.118,3.118 0,1.722 1.396,3.118 3.118,3.118 1.722,0 3.118,-1.396 3.118,-3.118 0,-1.722 -1.396,-3.118 -3.118,-3.118 z" /><path
       id="path654"
       style="fill:none;stroke:#ff0000;stroke-width:0.003;stroke-linecap:butt;stroke-linejoin:miter;stroke-miterlimit:10;stroke-dasharray:none;stroke-opacity:1"
       d="m 541.40781,164.21172 c -1.722,0 -3.118,1.396 -3.118,3.118 0,1.723 1.396,3.118 3.118,3.118 1.722,0 3.118,-1.395 3.118,-3.118 0,-1.722 -1.396,-3.118 -3.118,-3.118 z" /><path
       id="path658"
       style="fill:none;stroke:#ff0000;stroke-width:0.003;stroke-linecap:butt;stroke-linejoin:miter;stroke-miterlimit:10;stroke-dasharray:none;stroke-opacity:1"
       d="m 634.24231,276.88942 c -1.722,0 -3.118,1.396 -3.118,3.118 0,1.722 1.396,3.118 3.118,3.118 1.722,0 3.118,-1.396 3.118,-3.118 0,-1.722 -1.396,-3.118 -3.118,-3.118 z" /><path
       id="path662"
       style="fill:none;stroke:#ff0000;stroke-width:0.003;stroke-linecap:butt;stroke-linejoin:miter;stroke-miterlimit:10;stroke-dasharray:none;stroke-opacity:1"
       d="m 502.43131,298.85822 c -1.722,0 -3.118,1.396 -3.118,3.117 0,1.723 1.396,3.118 3.118,3.118 1.722,0 3.118,-1.395 3.118,-3.118 0,-1.721 -1.396,-3.117 -3.118,-3.117 z" /><path
       id="path666"
       style="fill:none;stroke:#ff0000;stroke-width:0.003;stroke-linecap:butt;stroke-linejoin:miter;stroke-miterlimit:10;stroke-dasharray:none;stroke-opacity:1"
       d="m 769.4488,425.5577 c 0,-1.723 -1.396,-3.118 -3.118,-3.118 -1.723,0 -3.118,1.395 -3.118,3.118 0,1.722 1.395,3.118 3.118,3.118 1.722,0 3.118,-1.396 3.118,-3.118 z" /><path
       id="path670"
       style="fill:none;stroke:#ff0000;stroke-width:0.003;stroke-linecap:butt;stroke-linejoin:miter;stroke-miterlimit:10;stroke-dasharray:none;stroke-opacity:1"
       d="m 810.358,401.4034 c 0,-1.722 -1.396,-3.118 -3.118,-3.118 -1.722,0 -3.118,1.396 -3.118,3.118 0,1.723 1.396,3.118 3.118,3.118 1.722,0 3.118,-1.395 3.118,-3.118 z" /><path
       id="path674"
       style="fill:none;stroke:#ff0000;stroke-width:0.003;stroke-linecap:butt;stroke-linejoin:miter;stroke-miterlimit:10;stroke-dasharray:none;stroke-opacity:1"
       d="m 484.69,485.57523 c 0,-1.722 -1.396,-3.118 -3.118,-3.118 -1.722,0 -3.118,1.396 -3.118,3.118 0,1.723 1.396,3.118 3.118,3.118 1.722,0 3.118,-1.395 3.118,-3.118 z" /><path
       id="path678"
       style="fill:none;stroke:#ff0000;stroke-width:0.003;stroke-linecap:butt;stroke-linejoin:miter;stroke-miterlimit:10;stroke-dasharray:none;stroke-opacity:1"
       d="m 481.5718,435.54393 c 1.722,0 3.118,-1.396 3.118,-3.118 0,-1.722 -1.396,-3.118 -3.118,-3.118 -1.722,0 -3.118,1.396 -3.118,3.118 0,1.722 1.396,3.118 3.118,3.118 z" /><path
       id="path682"
       style="fill:none;stroke:#ff0000;stroke-width:0.003;stroke-linecap:butt;stroke-linejoin:miter;stroke-miterlimit:10;stroke-dasharray:none;stroke-opacity:1"
       d="m 697.0045,516.3312 c 1.723,0 3.118,-1.396 3.118,-3.118 0,-1.723 -1.395,-3.118 -3.118,-3.118 -1.722,0 -3.118,1.395 -3.118,3.118 0,1.722 1.396,3.118 3.118,3.118 z" /><path
       id="path686"
       style="fill:none;stroke:#ff0000;stroke-width:0.003;stroke-linecap:butt;stroke-linejoin:miter;stroke-miterlimit:10;stroke-dasharray:none;stroke-opacity:1"
       d="m 604.1705,403.6534 c 1.722,0 3.118,-1.396 3.118,-3.118 0,-1.722 -1.396,-3.117 -3.118,-3.117 -1.723,0 -3.118,1.395 -3.118,3.117 0,1.722 1.395,3.118 3.118,3.118 z" /><path
       id="path690"
       style="fill:none;stroke:#ff0000;stroke-width:0.003;stroke-linecap:butt;stroke-linejoin:miter;stroke-miterlimit:10;stroke-dasharray:none;stroke-opacity:1"
       d="m 735.981,381.6856 c 1.723,0 3.118,-1.396 3.118,-3.118 0,-1.723 -1.395,-3.118 -3.118,-3.118 -1.722,0 -3.118,1.395 -3.118,3.118 0,1.722 1.396,3.118 3.118,3.118 z" /><path
       id="path692"
       style="fill:none;stroke:#ff0000;stroke-width:0.003;stroke-linecap:butt;stroke-linejoin:miter;stroke-miterlimit:10;stroke-dasharray:none;stroke-opacity:1"
       d="m 474.51,493.01713 h -39.685 v 39.685 h 39.685 z" /><path
       id="path694"
       style="fill:none;stroke:#ff0000;stroke-width:0.003;stroke-linecap:butt;stroke-linejoin:miter;stroke-miterlimit:10;stroke-dasharray:none;stroke-opacity:1"
       d="m 474.51,439.15913 h -39.685 v 39.685 h 39.685 z" /><path
       id="path696"
       style="fill:none;stroke:#ff0000;stroke-width:0.003;stroke-linecap:butt;stroke-linejoin:miter;stroke-miterlimit:10;stroke-dasharray:none;stroke-opacity:1"
       d="m 474.51,385.30113 h -39.685 v 39.685 h 39.685 z" /><path
       id="path698"
       style="fill:none;stroke:#ff0000;stroke-width:0.003;stroke-linecap:butt;stroke-linejoin:miter;stroke-miterlimit:10;stroke-dasharray:none;stroke-opacity:1"
       d="m 528.363,493.01913 h -39.685 v 39.685 h 39.685 z" /><path
       id="path700"
       style="fill:none;stroke:#ff0000;stroke-width:0.003;stroke-linecap:butt;stroke-linejoin:miter;stroke-miterlimit:10;stroke-dasharray:none;stroke-opacity:1"
       d="m 528.363,439.16113 h -39.685 v 39.685 h 39.685 z" /><path
       id="path702"
       style="fill:none;stroke:#ff0000;stroke-width:0.003;stroke-linecap:butt;stroke-linejoin:miter;stroke-miterlimit:10;stroke-dasharray:none;stroke-opacity:1"
       d="m 528.363,385.30313 h -39.685 v 39.685 h 39.685 z" /><path
       id="path704"
       style="fill:none;stroke:#ff0000;stroke-width:0.003;stroke-linecap:butt;stroke-linejoin:miter;stroke-miterlimit:10;stroke-dasharray:none;stroke-opacity:1"
       d="m 582.222,523.477 h -39.685 v 39.686 h 39.685 z" /><path
       id="path706"
       style="fill:none;stroke:#ff0000;stroke-width:0.003;stroke-linecap:butt;stroke-linejoin:miter;stroke-miterlimit:10;stroke-dasharray:none;stroke-opacity:1"
       d="m 582.222,469.618 h -39.685 v 39.686 h 39.685 z" /><path
       id="path708"
       style="fill:none;stroke:#ff0000;stroke-width:0.003;stroke-linecap:butt;stroke-linejoin:miter;stroke-miterlimit:10;stroke-dasharray:none;stroke-opacity:1"
       d="m 582.222,415.761 h -39.685 v 39.685 h 39.685 z" /><path
       id="path710"
       style="fill:none;stroke:#ff0000;stroke-width:0.003;stroke-linecap:butt;stroke-linejoin:miter;stroke-miterlimit:10;stroke-dasharray:none;stroke-opacity:1"
       d="m 636.086,530.22 h -39.685 v 39.686 h 39.685 z" /><path
       id="path712"
       style="fill:none;stroke:#ff0000;stroke-width:0.003;stroke-linecap:butt;stroke-linejoin:miter;stroke-miterlimit:10;stroke-dasharray:none;stroke-opacity:1"
       d="m 636.086,476.362 h -39.685 v 39.685 h 39.685 z" /><path
       id="path714"
       style="fill:none;stroke:#ff0000;stroke-width:0.003;stroke-linecap:butt;stroke-linejoin:miter;stroke-miterlimit:10;stroke-dasharray:none;stroke-opacity:1"
       d="m 636.086,422.504 h -39.685 v 39.685 h 39.685 z" /><path
       id="path716"
       style="fill:none;stroke:#ff0000;stroke-width:0.003;stroke-linecap:butt;stroke-linejoin:miter;stroke-miterlimit:10;stroke-dasharray:none;stroke-opacity:1"
       d="m 689.948,523.489 h -39.686 v 39.685 h 39.686 z" /><path
       id="path718"
       style="fill:none;stroke:#ff0000;stroke-width:0.003;stroke-linecap:butt;stroke-linejoin:miter;stroke-miterlimit:10;stroke-dasharray:none;stroke-opacity:1"
       d="m 689.948,469.631 h -39.686 v 39.685 h 39.686 z" /><path
       id="path720"
       style="fill:none;stroke:#ff0000;stroke-width:0.003;stroke-linecap:butt;stroke-linejoin:miter;stroke-miterlimit:10;stroke-dasharray:none;stroke-opacity:1"
       d="m 689.948,415.773 h -39.686 v 39.685 h 39.686 z" /><path
       id="path722"
       style="fill:none;stroke:#ff0000;stroke-width:0.003;stroke-linecap:butt;stroke-linejoin:miter;stroke-miterlimit:10;stroke-dasharray:none;stroke-opacity:1"
       d="m 743.811,516.729 h -39.686 v 39.686 h 39.686 z" /><path
       id="path724"
       style="fill:none;stroke:#ff0000;stroke-width:0.003;stroke-linecap:butt;stroke-linejoin:miter;stroke-miterlimit:10;stroke-dasharray:none;stroke-opacity:1"
       d="m 743.811,462.87 h -39.686 v 39.686 h 39.686 z" /><path
       id="path726"
       style="fill:none;stroke:#ff0000;stroke-width:0.003;stroke-linecap:butt;stroke-linejoin:miter;stroke-miterlimit:10;stroke-dasharray:none;stroke-opacity:1"
       d="m 743.811,409.013 h -39.686 v 39.685 h 39.686 z" /><path
       id="path728"
       style="fill:none;stroke:#ff0000;stroke-width:0.003;stroke-linecap:butt;stroke-linejoin:miter;stroke-miterlimit:10;stroke-dasharray:none;stroke-opacity:1"
       d="m 663.071,360.049 h -39.686 v 39.686 h 39.686 z" /><path
       id="path732"
       style="fill:none;stroke:#ff0000;stroke-width:0.003;stroke-linecap:butt;stroke-linejoin:miter;stroke-miterlimit:10;stroke-dasharray:none;stroke-opacity:1"
       d="m 716.6802,347.9073 -38.333,10.271 10.271,38.333 38.333,-10.271 z" /><path
       id="path736"
       style="fill:none;stroke:#ff0000;stroke-width:0.003;stroke-linecap:butt;stroke-linejoin:miter;stroke-miterlimit:10;stroke-dasharray:none;stroke-opacity:1"
       d="m 773.0064,334.502 -34.368,19.843 19.842,34.368 34.368,-19.843 z" /></g></svg>
