<?xml version="1.0" encoding="UTF-8" standalone="no"?>
<svg
   xmlns:dc="http://purl.org/dc/elements/1.1/"
   xmlns:cc="http://creativecommons.org/ns#"
   xmlns:rdf="http://www.w3.org/1999/02/22-rdf-syntax-ns#"
   xmlns:svg="http://www.w3.org/2000/svg"
   xmlns="http://www.w3.org/2000/svg"
   xmlns:sodipodi="http://sodipodi.sourceforge.net/DTD/sodipodi-0.dtd"
   xmlns:inkscape="http://www.inkscape.org/namespaces/inkscape"
   sodipodi:docname="top.svg"
   id="svg255"
   version="1.2"
   viewBox="0 0 420.945 595.276"
   height="595.276pt"
   width="420.945pt"
   inkscape:version="1.0.1 (3bc2e813f5, 2020-09-07)">
  <metadata
     id="metadata261">
    <rdf:RDF>
      <cc:Work
         rdf:about="">
        <dc:format>image/svg+xml</dc:format>
        <dc:type
           rdf:resource="http://purl.org/dc/dcmitype/StillImage" />
        <dc:title></dc:title>
      </cc:Work>
    </rdf:RDF>
  </metadata>
  <defs
     id="defs259" />
  <sodipodi:namedview
     id="namedview257"
     inkscape:window-height="1056"
     inkscape:window-width="1916"
     inkscape:pageshadow="2"
     inkscape:pageopacity="0"
     guidetolerance="10"
     gridtolerance="10"
     objecttolerance="10"
     borderopacity="1"
     bordercolor="#666666"
     pagecolor="#ffffff"
     inkscape:document-rotation="0"
     showgrid="false"
     inkscape:zoom="1.4505802"
     inkscape:cx="208.25772"
     inkscape:cy="251.28503"
     inkscape:window-x="0"
     inkscape:window-y="20"
     inkscape:window-maximized="1"
     inkscape:current-layer="svg255" />
  <path
     id="path2"
     d="M 403.20312,41.394531 V 207.9375 c 0,1.08984 -1.17968,1.77344 -2.125,1.22656 l -53.05859,-30.62109 c -0.44141,-0.25391 -0.71094,-0.72266 -0.71094,-1.22656 V 41.398437 c 0,-0.78125 0.63672,-1.414062 1.41797,-1.417968 l 53.0625,-0.0039 c 0.78125,0 1.41406,0.632813 1.41406,1.417969 z m 0,0"
     style="fill:none;stroke:#0000ff;stroke-width:0.003;stroke-linecap:butt;stroke-linejoin:miter;stroke-miterlimit:10;stroke-opacity:1" />
  <path
     id="path4"
     d="m 337.92578,182.76953 c 0.0195,0.75 0.39063,1.44531 0.99609,1.88672"
     style="fill:none;stroke:#0000ff;stroke-width:0.003;stroke-linecap:butt;stroke-linejoin:miter;stroke-miterlimit:10;stroke-opacity:1" />
  <path
     id="path6"
     d="m 393.63281,221.07812 c 1.21094,-1.79687 0.73828,-4.24218 -1.0625,-5.45312 l -0.0156,-0.0117"
     style="fill:none;stroke:#0000ff;stroke-width:0.003;stroke-linecap:butt;stroke-linejoin:miter;stroke-miterlimit:10;stroke-opacity:1" />
  <path
     id="path8"
     d="M 392.55078,215.60547 338.91797,184.65625"
     style="fill:none;stroke:#0000ff;stroke-width:0.003;stroke-linecap:butt;stroke-linejoin:miter;stroke-miterlimit:10;stroke-opacity:1" />
  <path
     id="path10"
     d="m 353.15234,282.97656 c 1.79688,1.21485 4.24219,0.73828 5.45703,-1.0625 0,-0.004 0.004,-0.008 0.008,-0.0117"
     style="fill:none;stroke:#0000ff;stroke-width:0.003;stroke-linecap:butt;stroke-linejoin:miter;stroke-miterlimit:10;stroke-opacity:1" />
  <path
     id="path12"
     d="m 312.63281,259.55859 c -0.60547,-0.17968 -1.22656,-0.30468 -1.85547,-0.36718"
     style="fill:none;stroke:#0000ff;stroke-width:0.003;stroke-linecap:butt;stroke-linejoin:miter;stroke-miterlimit:10;stroke-opacity:1" />
  <path
     id="path14"
     d="m 358.60937,281.89844 35.02344,-60.82031"
     style="fill:none;stroke:#0000ff;stroke-width:0.003;stroke-linecap:butt;stroke-linejoin:miter;stroke-miterlimit:10;stroke-opacity:1" />
  <path
     id="path16"
     d="m 312.63281,259.55469 40.51172,23.41406"
     style="fill:none;stroke:#0000ff;stroke-width:0.003;stroke-linecap:butt;stroke-linejoin:miter;stroke-miterlimit:10;stroke-opacity:1" />
  <path
     id="path18"
     d="M 206.82812,245.66797 310.77344,259.1875"
     style="fill:none;stroke:#0000ff;stroke-width:0.003;stroke-linecap:butt;stroke-linejoin:miter;stroke-miterlimit:10;stroke-opacity:1" />
  <path
     id="path20"
     d="m 205.82812,245.25391 c 0.26563,0.26562 0.625,0.41796 1,0.41796"
     style="fill:none;stroke:#0000ff;stroke-width:0.003;stroke-linecap:butt;stroke-linejoin:miter;stroke-miterlimit:10;stroke-opacity:1" />
  <path
     id="path22"
     d="M 175.94141,221.28131 205.82422,245.25"
     style="fill:none;stroke:#0000ff;stroke-width:0.003;stroke-linecap:butt;stroke-linejoin:miter;stroke-miterlimit:10;stroke-opacity:1"
     sodipodi:nodetypes="cc" />
  <path
     id="path24"
     d="m 337.92578,39.445312 -0.008,143.324218"
     style="fill:none;stroke:#0000ff;stroke-width:0.003;stroke-linecap:butt;stroke-linejoin:miter;stroke-miterlimit:10;stroke-opacity:1" />
  <path
     id="path26"
     d="m 337.92969,39.449219 c 0,-0.78125 -0.63282,-1.417969 -1.41407,-1.417969"
     style="fill:none;stroke:#0000ff;stroke-width:0.003;stroke-linecap:butt;stroke-linejoin:miter;stroke-miterlimit:10;stroke-opacity:1" />
  <path
     id="path28"
     d="m 175.94141,221.28131 c -0.26563,-0.26563 -0.625,-0.41407 -1.00391,-0.41407"
     style="fill:none;stroke:#0000ff;stroke-width:0.003;stroke-linecap:butt;stroke-linejoin:miter;stroke-miterlimit:10;stroke-opacity:1" />
  <path
     id="path30"
     d="m 17.617187,219.44928 c 0,0.78515 0.632813,1.41796 1.417969,1.41796"
     style="fill:none;stroke:#0000ff;stroke-width:0.003;stroke-linecap:butt;stroke-linejoin:miter;stroke-miterlimit:10;stroke-opacity:1" />
  <path
     id="path32"
     d="m 19.035156,61.41803 c -0.785156,0 -1.417969,0.636719 -1.417969,1.417969"
     style="fill:none;stroke:#0000ff;stroke-width:0.003;stroke-linecap:butt;stroke-linejoin:miter;stroke-miterlimit:10;stroke-opacity:1" />
  <path
     id="path34"
     d="m 123.91406,61.41803 c 0.78516,0 1.41797,-0.632812 1.41797,-1.417969"
     style="fill:none;stroke:#0000ff;stroke-width:0.003;stroke-linecap:butt;stroke-linejoin:miter;stroke-miterlimit:10;stroke-opacity:1" />
  <path
     id="path36"
     d="m 126.75,30.945312 c -0.78125,0 -1.41797,0.636719 -1.41797,1.417969"
     style="fill:none;stroke:#0000ff;stroke-width:0.003;stroke-linecap:butt;stroke-linejoin:miter;stroke-miterlimit:10;stroke-opacity:1" />
  <path
     id="path38"
     d="m 177.77344,30.945312 c 0.78125,0 1.41797,-0.632812 1.41797,-1.417968"
     style="fill:none;stroke:#0000ff;stroke-width:0.003;stroke-linecap:butt;stroke-linejoin:miter;stroke-miterlimit:10;stroke-opacity:1" />
  <path
     id="path40"
     d="m 180.60937,24.566406 c -0.78515,0 -1.41796,0.636719 -1.41796,1.417969"
     style="fill:none;stroke:#0000ff;stroke-width:0.003;stroke-linecap:butt;stroke-linejoin:miter;stroke-miterlimit:10;stroke-opacity:1" />
  <path
     id="path42"
     d="m 230.21484,25.984375 c 0,-0.78125 -0.63281,-1.417969 -1.41797,-1.417969"
     style="fill:none;stroke:#0000ff;stroke-width:0.003;stroke-linecap:butt;stroke-linejoin:miter;stroke-miterlimit:10;stroke-opacity:1" />
  <path
     id="path44"
     d="m 230.21484,29.527344 c 0,0.785156 0.63282,1.417968 1.41797,1.417968"
     style="fill:none;stroke:#0000ff;stroke-width:0.003;stroke-linecap:butt;stroke-linejoin:miter;stroke-miterlimit:10;stroke-opacity:1" />
  <path
     id="path46"
     d="m 284.07422,32.363281 c 0,-0.78125 -0.63672,-1.417969 -1.41797,-1.417969"
     style="fill:none;stroke:#0000ff;stroke-width:0.003;stroke-linecap:butt;stroke-linejoin:miter;stroke-miterlimit:10;stroke-opacity:1" />
  <path
     id="path48"
     d="m 284.07422,36.617187 c 0,0.78125 0.63281,1.414063 1.41406,1.414063"
     style="fill:none;stroke:#0000ff;stroke-width:0.003;stroke-linecap:butt;stroke-linejoin:miter;stroke-miterlimit:10;stroke-opacity:1" />
  <path
     id="path50"
     d="M 174.9375,220.86334 H 19.02734"
     style="fill:none;stroke:#0000ff;stroke-width:0.003;stroke-linecap:butt;stroke-linejoin:miter;stroke-miterlimit:10;stroke-opacity:1" />
  <path
     id="path52"
     d="M 17.613281,62.832093 V 219.44537"
     style="fill:none;stroke:#0000ff;stroke-width:0.003;stroke-linecap:butt;stroke-linejoin:miter;stroke-miterlimit:10;stroke-opacity:1" />
  <path
     id="path54"
     d="M 123.91016,61.414124 H 19.03125"
     style="fill:none;stroke:#0000ff;stroke-width:0.003;stroke-linecap:butt;stroke-linejoin:miter;stroke-miterlimit:10;stroke-opacity:1" />
  <path
     id="path56"
     d="M 125.33203,32.359375 V 59.99717"
     style="fill:none;stroke:#0000ff;stroke-width:0.00483759;stroke-linecap:butt;stroke-linejoin:miter;stroke-miterlimit:10;stroke-opacity:1" />
  <path
     id="path58"
     d="M 177.76953,30.941406 H 126.75"
     style="fill:none;stroke:#0000ff;stroke-width:0.003;stroke-linecap:butt;stroke-linejoin:miter;stroke-miterlimit:10;stroke-opacity:1" />
  <path
     id="path60"
     d="m 179.1875,25.980469 v 3.542969"
     style="fill:none;stroke:#0000ff;stroke-width:0.003;stroke-linecap:butt;stroke-linejoin:miter;stroke-miterlimit:10;stroke-opacity:1" />
  <path
     id="path62"
     d="m 228.79297,24.5625 h -48.1875"
     style="fill:none;stroke:#0000ff;stroke-width:0.003;stroke-linecap:butt;stroke-linejoin:miter;stroke-miterlimit:10;stroke-opacity:1" />
  <path
     id="path64"
     d="M 230.21094,29.523437 V 25.980469"
     style="fill:none;stroke:#0000ff;stroke-width:0.003;stroke-linecap:butt;stroke-linejoin:miter;stroke-miterlimit:10;stroke-opacity:1" />
  <path
     id="path66"
     d="M 282.64844,30.941406 H 231.63281"
     style="fill:none;stroke:#0000ff;stroke-width:0.003;stroke-linecap:butt;stroke-linejoin:miter;stroke-miterlimit:10;stroke-opacity:1" />
  <path
     id="path68"
     d="m 284.07031,36.609375 v -4.25"
     style="fill:none;stroke:#0000ff;stroke-width:0.003;stroke-linecap:butt;stroke-linejoin:miter;stroke-miterlimit:10;stroke-opacity:1" />
  <path
     id="path70"
     d="M 336.51172,38.027344 H 285.48828"
     style="fill:none;stroke:#0000ff;stroke-width:0.003;stroke-linecap:butt;stroke-linejoin:miter;stroke-miterlimit:10;stroke-opacity:1" />
  <path
     id="path72"
     d="m 19.074219,328.45703 v 166.54688 c 0,1.08984 1.179687,1.77343 2.125,1.22656 l 53.0625,-30.6211 c 0.4375,-0.2539 0.707031,-0.72265 0.707031,-1.23046 V 328.46484 c 0,-0.78125 -0.632813,-1.41797 -1.414063,-1.41797 l -53.0625,-0.008 c -0.78125,0 -1.417968,0.63672 -1.417968,1.41797 z m 0,0"
     style="fill:none;stroke:#0000ff;stroke-width:0.003;stroke-linecap:butt;stroke-linejoin:miter;stroke-miterlimit:10;stroke-opacity:1" />
  <path
     id="path74"
     d="m 84.355469,469.83594 c -0.02344,0.75 -0.390625,1.44531 -1,1.88281"
     style="fill:none;stroke:#0000ff;stroke-width:0.003;stroke-linecap:butt;stroke-linejoin:miter;stroke-miterlimit:10;stroke-opacity:1" />
  <path
     id="path76"
     d="m 28.648437,508.14453 c -1.214843,-1.80078 -0.738281,-4.24219 1.0625,-5.45703 l 0.01172,-0.008"
     style="fill:none;stroke:#0000ff;stroke-width:0.003;stroke-linecap:butt;stroke-linejoin:miter;stroke-miterlimit:10;stroke-opacity:1" />
  <path
     id="path78"
     d="M 29.730469,502.67187 83.363281,471.71875"
     style="fill:none;stroke:#0000ff;stroke-width:0.003;stroke-linecap:butt;stroke-linejoin:miter;stroke-miterlimit:10;stroke-opacity:1" />
  <path
     id="path80"
     d="m 69.128906,570.04297 c -1.800781,1.21094 -4.246093,0.73828 -5.457031,-1.0625 -0.0039,-0.004 -0.0078,-0.0117 -0.0078,-0.0156"
     style="fill:none;stroke:#0000ff;stroke-width:0.003;stroke-linecap:butt;stroke-linejoin:miter;stroke-miterlimit:10;stroke-opacity:1" />
  <path
     id="path82"
     d="m 109.64844,546.625 c 0.60547,-0.18359 1.22656,-0.30469 1.85547,-0.36719"
     style="fill:none;stroke:#0000ff;stroke-width:0.003;stroke-linecap:butt;stroke-linejoin:miter;stroke-miterlimit:10;stroke-opacity:1" />
  <path
     id="path84"
     d="M 63.667969,568.96094 28.648437,508.14453"
     style="fill:none;stroke:#0000ff;stroke-width:0.003;stroke-linecap:butt;stroke-linejoin:miter;stroke-miterlimit:10;stroke-opacity:1" />
  <path
     id="path86"
     d="M 109.64844,546.62109 69.132813,570.03516"
     style="fill:none;stroke:#0000ff;stroke-width:0.003;stroke-linecap:butt;stroke-linejoin:miter;stroke-miterlimit:10;stroke-opacity:1" />
  <path
     id="path88"
     d="M 215.45312,532.73047 111.50781,546.25391"
     style="fill:none;stroke:#0000ff;stroke-width:0.003;stroke-linecap:butt;stroke-linejoin:miter;stroke-miterlimit:10;stroke-opacity:1" />
  <path
     id="path90"
     d="m 216.45312,532.32031 c -0.26562,0.26563 -0.625,0.41406 -1.0039,0.41406"
     style="fill:none;stroke:#0000ff;stroke-width:0.003;stroke-linecap:butt;stroke-linejoin:miter;stroke-miterlimit:10;stroke-opacity:1" />
  <path
     id="path92"
     d="m 246.33984,491.33203 -29.88672,40.98438"
     style="fill:none;stroke:#0000ff;stroke-width:0.003;stroke-linecap:butt;stroke-linejoin:miter;stroke-miterlimit:10;stroke-opacity:1" />
  <path
     id="path94"
     d="m 84.355469,326.51172 0.0078,143.32031"
     style="fill:none;stroke:#0000ff;stroke-width:0.003;stroke-linecap:butt;stroke-linejoin:miter;stroke-miterlimit:10;stroke-opacity:1" />
  <path
     id="path96"
     d="m 84.347656,326.51562 c 0,-0.78515 0.632813,-1.41796 1.417969,-1.41796"
     style="fill:none;stroke:#0000ff;stroke-width:0.003;stroke-linecap:butt;stroke-linejoin:miter;stroke-miterlimit:10;stroke-opacity:1" />
  <path
     id="path98"
     d="m 246.33984,491.33984 c 0.26563,-0.26562 0.625,-0.41406 1,-0.41406"
     style="fill:none;stroke:#0000ff;stroke-width:0.003;stroke-linecap:butt;stroke-linejoin:miter;stroke-miterlimit:10;stroke-opacity:1" />
  <path
     id="path100"
     d="m 404.66406,489.50781 c 0,0.78125 -0.63672,1.41797 -1.41797,1.41797"
     style="fill:none;stroke:#0000ff;stroke-width:0.003;stroke-linecap:butt;stroke-linejoin:miter;stroke-miterlimit:10;stroke-opacity:1" />
  <path
     id="path102"
     d="m 403.24609,331.47656 c 0.78125,0 1.41797,0.63281 1.41797,1.41797"
     style="fill:none;stroke:#0000ff;stroke-width:0.003;stroke-linecap:butt;stroke-linejoin:miter;stroke-miterlimit:10;stroke-opacity:1" />
  <path
     id="path104"
     d="m 298.36328,331.47656 c -0.78125,0 -1.41797,-0.63672 -1.41797,-1.41797"
     style="fill:none;stroke:#0000ff;stroke-width:0.003;stroke-linecap:butt;stroke-linejoin:miter;stroke-miterlimit:10;stroke-opacity:1" />
  <path
     id="path106"
     d="m 295.53125,318.01172 c 0.78125,0 1.41406,0.63281 1.41406,1.41797"
     style="fill:none;stroke:#0000ff;stroke-width:0.003;stroke-linecap:butt;stroke-linejoin:miter;stroke-miterlimit:10;stroke-opacity:1" />
  <path
     id="path108"
     d="m 244.50781,318.01172 c -0.78515,0 -1.41797,-0.63281 -1.41797,-1.41797"
     style="fill:none;stroke:#0000ff;stroke-width:0.003;stroke-linecap:butt;stroke-linejoin:miter;stroke-miterlimit:10;stroke-opacity:1" />
  <path
     id="path110"
     d="m 241.67187,311.63281 c 0.78125,0 1.41797,0.63672 1.41797,1.41797"
     style="fill:none;stroke:#0000ff;stroke-width:0.003;stroke-linecap:butt;stroke-linejoin:miter;stroke-miterlimit:10;stroke-opacity:1" />
  <path
     id="path112"
     d="m 192.06641,313.05078 c 0,-0.78125 0.63281,-1.41797 1.41406,-1.41797"
     style="fill:none;stroke:#0000ff;stroke-width:0.003;stroke-linecap:butt;stroke-linejoin:miter;stroke-miterlimit:10;stroke-opacity:1" />
  <path
     id="path114"
     d="m 192.06641,316.59375 c 0,0.78125 -0.63672,1.41797 -1.41797,1.41797"
     style="fill:none;stroke:#0000ff;stroke-width:0.003;stroke-linecap:butt;stroke-linejoin:miter;stroke-miterlimit:10;stroke-opacity:1" />
  <path
     id="path116"
     d="m 138.20703,319.42969 c 0,-0.78516 0.63281,-1.41797 1.41797,-1.41797"
     style="fill:none;stroke:#0000ff;stroke-width:0.003;stroke-linecap:butt;stroke-linejoin:miter;stroke-miterlimit:10;stroke-opacity:1" />
  <path
     id="path118"
     d="m 138.20703,323.67969 c 0,0.78515 -0.63672,1.41797 -1.41797,1.41797"
     style="fill:none;stroke:#0000ff;stroke-width:0.003;stroke-linecap:butt;stroke-linejoin:miter;stroke-miterlimit:10;stroke-opacity:1" />
  <path
     id="path120"
     d="M 247.33984,490.92187 H 403.25"
     style="fill:none;stroke:#0000ff;stroke-width:0.003;stroke-linecap:butt;stroke-linejoin:miter;stroke-miterlimit:10;stroke-opacity:1" />
  <path
     id="path122"
     d="M 404.66797,332.89062 V 489.50391"
     style="fill:none;stroke:#0000ff;stroke-width:0.003;stroke-linecap:butt;stroke-linejoin:miter;stroke-miterlimit:10;stroke-opacity:1" />
  <path
     id="path124"
     d="M 298.36719,331.47266 H 403.25"
     style="fill:none;stroke:#0000ff;stroke-width:0.003;stroke-linecap:butt;stroke-linejoin:miter;stroke-miterlimit:10;stroke-opacity:1" />
  <path
     id="path126"
     d="m 296.94922,319.42578 v 10.625"
     style="fill:none;stroke:#0000ff;stroke-width:0.003;stroke-linecap:butt;stroke-linejoin:miter;stroke-miterlimit:10;stroke-opacity:1" />
  <path
     id="path128"
     d="m 244.51172,318.00781 h 51.01953"
     style="fill:none;stroke:#0000ff;stroke-width:0.003;stroke-linecap:butt;stroke-linejoin:miter;stroke-miterlimit:10;stroke-opacity:1" />
  <path
     id="path130"
     d="m 243.09375,313.04687 v 3.54297"
     style="fill:none;stroke:#0000ff;stroke-width:0.003;stroke-linecap:butt;stroke-linejoin:miter;stroke-miterlimit:10;stroke-opacity:1" />
  <path
     id="path132"
     d="m 193.48437,311.62891 h 48.19141"
     style="fill:none;stroke:#0000ff;stroke-width:0.003;stroke-linecap:butt;stroke-linejoin:miter;stroke-miterlimit:10;stroke-opacity:1" />
  <path
     id="path134"
     d="m 192.06641,316.58984 v -3.54297"
     style="fill:none;stroke:#0000ff;stroke-width:0.003;stroke-linecap:butt;stroke-linejoin:miter;stroke-miterlimit:10;stroke-opacity:1" />
  <path
     id="path136"
     d="m 139.62891,318.00781 h 51.01953"
     style="fill:none;stroke:#0000ff;stroke-width:0.003;stroke-linecap:butt;stroke-linejoin:miter;stroke-miterlimit:10;stroke-opacity:1" />
  <path
     id="path138"
     d="m 138.21094,323.67187 v -4.24609"
     style="fill:none;stroke:#0000ff;stroke-width:0.003;stroke-linecap:butt;stroke-linejoin:miter;stroke-miterlimit:10;stroke-opacity:1" />
  <path
     id="path140"
     d="M 85.765625,325.08984 H 136.79297"
     style="fill:none;stroke:#0000ff;stroke-width:0.003;stroke-linecap:butt;stroke-linejoin:miter;stroke-miterlimit:10;stroke-opacity:1" />
  <path
     id="path142"
     d="m 357.93359,174.57812 c 0,1.72266 -1.39453,3.11719 -3.11718,3.11719 -1.72266,0 -3.11719,-1.39453 -3.11719,-3.11719 0,-1.72265 1.39453,-3.12109 3.11719,-3.12109 1.72265,0 3.11718,1.39844 3.11718,3.12109 z m 0,0"
     style="fill:none;stroke:#ff0000;stroke-width:0.003;stroke-linecap:butt;stroke-linejoin:miter;stroke-miterlimit:10;stroke-opacity:1" />
  <path
     id="path144"
     d="m 398.84375,198.73047 c 0,1.72265 -1.39453,3.11719 -3.11719,3.11719 -1.72265,0 -3.11719,-1.39454 -3.11719,-3.11719 0,-1.72266 1.39454,-3.11719 3.11719,-3.11719 1.72266,0 3.11719,1.39453 3.11719,3.11719 z m 0,0"
     style="fill:none;stroke:#ff0000;stroke-width:0.003;stroke-linecap:butt;stroke-linejoin:miter;stroke-miterlimit:10;stroke-opacity:1" />
  <path
     id="path146"
     d="m 73.175781,114.55865 c 0,1.72266 -1.394531,3.11719 -3.117187,3.11719 -1.722656,0 -3.121094,-1.39453 -3.121094,-3.11719 0,-1.72265 1.398438,-3.11718 3.121094,-3.11718 1.722656,0 3.117187,1.39453 3.117187,3.11718 z m 0,0"
     style="fill:none;stroke:#ff0000;stroke-width:0.003;stroke-linecap:butt;stroke-linejoin:miter;stroke-miterlimit:10;stroke-opacity:1" />
  <path
     id="path148"
     d="m 70.058594,164.5899 c 1.71875,0 3.117187,1.39453 3.117187,3.11719 0,1.72265 -1.398437,3.12109 -3.117187,3.12109 -1.722657,0 -3.121094,-1.39844 -3.121094,-3.12109 0,-1.72266 1.398437,-3.11719 3.121094,-3.11719 z m 0,0"
     style="fill:none;stroke:#ff0000;stroke-width:0.003;stroke-linecap:butt;stroke-linejoin:miter;stroke-miterlimit:10;stroke-opacity:1" />
  <path
     id="path150"
     d="m 285.49219,83.804687 c 1.71875,0 3.11718,1.394532 3.11718,3.117188 0,1.722656 -1.39843,3.117187 -3.11718,3.117187 -1.72266,0 -3.1211,-1.394531 -3.1211,-3.117187 0,-1.722656 1.39844,-3.117188 3.1211,-3.117188 z m 0,0"
     style="fill:none;stroke:#ff0000;stroke-width:0.003;stroke-linecap:butt;stroke-linejoin:miter;stroke-miterlimit:10;stroke-opacity:1" />
  <path
     id="path152"
     d="m 192.65625,196.48047 c 1.72266,0 3.11719,1.39844 3.11719,3.11719 0,1.72265 -1.39453,3.12109 -3.11719,3.12109 -1.72266,0 -3.11719,-1.39844 -3.11719,-3.12109 0,-1.71875 1.39453,-3.11719 3.11719,-3.11719 z m 0,0"
     style="fill:none;stroke:#ff0000;stroke-width:0.003;stroke-linecap:butt;stroke-linejoin:miter;stroke-miterlimit:10;stroke-opacity:1" />
  <path
     id="path154"
     d="m 324.46875,218.44922 c 1.71875,0 3.11719,1.39453 3.11719,3.11719 0,1.72265 -1.39844,3.11718 -3.11719,3.11718 -1.72266,0 -3.12109,-1.39453 -3.12109,-3.11718 0,-1.72266 1.39843,-3.11719 3.12109,-3.11719 z m 0,0"
     style="fill:none;stroke:#ff0000;stroke-width:0.003;stroke-linecap:butt;stroke-linejoin:miter;stroke-miterlimit:10;stroke-opacity:1" />
  <path
     id="path156"
     d="M 62.996094,107.11725 H 23.3125 V 67.433654 h 39.683594 z m 0,0"
     style="fill:none;stroke:#ff0000;stroke-width:0.003;stroke-linecap:butt;stroke-linejoin:miter;stroke-miterlimit:10;stroke-opacity:1" />
  <path
     id="path158"
     d="M 62.996094,160.97662 H 23.3125 v -39.6875 h 39.683594 z m 0,0"
     style="fill:none;stroke:#ff0000;stroke-width:0.003;stroke-linecap:butt;stroke-linejoin:miter;stroke-miterlimit:10;stroke-opacity:1" />
  <path
     id="path160"
     d="M 62.996094,214.83209 H 23.3125 V 175.1485 h 39.683594 z m 0,0"
     style="fill:none;stroke:#ff0000;stroke-width:0.003;stroke-linecap:butt;stroke-linejoin:miter;stroke-miterlimit:10;stroke-opacity:1" />
  <path
     id="path162"
     d="M 116.84766,107.11334 H 77.164062 V 67.429754 h 39.683598 z m 0,0"
     style="fill:none;stroke:#ff0000;stroke-width:0.003;stroke-linecap:butt;stroke-linejoin:miter;stroke-miterlimit:10;stroke-opacity:1" />
  <path
     id="path164"
     d="M 116.84766,160.97271 H 77.164062 v -39.68359 h 39.683598 z m 0,0"
     style="fill:none;stroke:#ff0000;stroke-width:0.003;stroke-linecap:butt;stroke-linejoin:miter;stroke-miterlimit:10;stroke-opacity:1" />
  <path
     id="path166"
     d="M 116.84766,214.83209 H 77.164062 V 175.1485 h 39.683598 z m 0,0"
     style="fill:none;stroke:#ff0000;stroke-width:0.003;stroke-linecap:butt;stroke-linejoin:miter;stroke-miterlimit:10;stroke-opacity:1" />
  <path
     id="path168"
     d="M 170.70703,76.65625 H 131.02344 V 36.97266 h 39.68359 z m 0,0"
     style="fill:none;stroke:#ff0000;stroke-width:0.003;stroke-linecap:butt;stroke-linejoin:miter;stroke-miterlimit:10;stroke-opacity:1" />
  <path
     id="path170"
     d="m 170.70703,130.51563 h -39.68359 v -39.6875 h 39.68359 z m 0,0"
     style="fill:none;stroke:#ff0000;stroke-width:0.003;stroke-linecap:butt;stroke-linejoin:miter;stroke-miterlimit:10;stroke-opacity:1" />
  <path
     id="path172"
     d="m 170.70703,184.375 h -39.68359 v -39.6875 h 39.68359 z m 0,0"
     style="fill:none;stroke:#ff0000;stroke-width:0.003;stroke-linecap:butt;stroke-linejoin:miter;stroke-miterlimit:10;stroke-opacity:1" />
  <path
     id="path174"
     d="M 224.57031,69.91406 H 184.88672 V 30.23047 h 39.68359 z m 0,0"
     style="fill:none;stroke:#ff0000;stroke-width:0.003;stroke-linecap:butt;stroke-linejoin:miter;stroke-miterlimit:10;stroke-opacity:1" />
  <path
     id="path176"
     d="m 224.57031,123.77344 h -39.68359 v -39.6875 h 39.68359 z m 0,0"
     style="fill:none;stroke:#ff0000;stroke-width:0.003;stroke-linecap:butt;stroke-linejoin:miter;stroke-miterlimit:10;stroke-opacity:1" />
  <path
     id="path178"
     d="m 224.57031,177.62891 h -39.68359 v -39.6836 h 39.68359 z m 0,0"
     style="fill:none;stroke:#ff0000;stroke-width:0.003;stroke-linecap:butt;stroke-linejoin:miter;stroke-miterlimit:10;stroke-opacity:1" />
  <path
     id="path180"
     d="m 278.43359,76.64453 h -39.6875 V 36.96094 h 39.6875 z m 0,0"
     style="fill:none;stroke:#ff0000;stroke-width:0.003;stroke-linecap:butt;stroke-linejoin:miter;stroke-miterlimit:10;stroke-opacity:1" />
  <path
     id="path182"
     d="m 278.43359,130.50391 h -39.6875 v -39.6875 h 39.6875 z m 0,0"
     style="fill:none;stroke:#ff0000;stroke-width:0.003;stroke-linecap:butt;stroke-linejoin:miter;stroke-miterlimit:10;stroke-opacity:1" />
  <path
     id="path184"
     d="m 278.43359,184.36328 h -39.6875 v -39.6875 h 39.6875 z m 0,0"
     style="fill:none;stroke:#ff0000;stroke-width:0.003;stroke-linecap:butt;stroke-linejoin:miter;stroke-miterlimit:10;stroke-opacity:1" />
  <path
     id="path186"
     d="m 332.29687,83.40625 h -39.6875 v -39.6875 h 39.6875 z m 0,0"
     style="fill:none;stroke:#ff0000;stroke-width:0.003;stroke-linecap:butt;stroke-linejoin:miter;stroke-miterlimit:10;stroke-opacity:1" />
  <path
     id="path188"
     d="m 332.29687,137.26563 h -39.6875 v -39.6875 h 39.6875 z m 0,0"
     style="fill:none;stroke:#ff0000;stroke-width:0.003;stroke-linecap:butt;stroke-linejoin:miter;stroke-miterlimit:10;stroke-opacity:1" />
  <path
     id="path190"
     d="m 332.29687,191.12109 h -39.6875 V 151.4375 h 39.6875 z m 0,0"
     style="fill:none;stroke:#ff0000;stroke-width:0.003;stroke-linecap:butt;stroke-linejoin:miter;stroke-miterlimit:10;stroke-opacity:1" />
  <path
     id="path192"
     d="m 251.55469,240.08594 h -39.6836 v -39.6875 h 39.6836 z m 0,0"
     style="fill:none;stroke:#ff0000;stroke-width:0.003;stroke-linecap:butt;stroke-linejoin:miter;stroke-miterlimit:10;stroke-opacity:1" />
  <path
     id="path194"
     d="m 305.16797,252.22656 -38.33594,-10.26953 10.27344,-38.33203 38.33203,10.26953 z m 0,0"
     style="fill:none;stroke:#ff0000;stroke-width:0.003;stroke-linecap:butt;stroke-linejoin:miter;stroke-miterlimit:10;stroke-opacity:1" />
  <path
     id="path196"
     d="m 361.49219,265.63281 -34.36719,-19.84375 19.83984,-34.36718 34.36719,19.84375 z m 0,0"
     style="fill:none;stroke:#ff0000;stroke-width:0.003;stroke-linecap:butt;stroke-linejoin:miter;stroke-miterlimit:10;stroke-opacity:1" />
  <path
     id="path198"
     d="m 64.34375,461.64062 c 0,1.72266 1.398438,3.1211 3.121094,3.1211 1.71875,0 3.117187,-1.39844 3.117187,-3.1211 0,-1.72265 -1.398437,-3.11718 -3.117187,-3.11718 -1.722656,0 -3.121094,1.39453 -3.121094,3.11718 z m 0,0"
     style="fill:none;stroke:#ff0000;stroke-width:0.003;stroke-linecap:butt;stroke-linejoin:miter;stroke-miterlimit:10;stroke-opacity:1" />
  <path
     id="path200"
     d="m 23.4375,485.79687 c 0,1.72266 1.394531,3.11719 3.117188,3.11719 1.722656,0 3.117187,-1.39453 3.117187,-3.11719 0,-1.72265 -1.394531,-3.12109 -3.117187,-3.12109 -1.722657,0 -3.117188,1.39844 -3.117188,3.12109 z m 0,0"
     style="fill:none;stroke:#ff0000;stroke-width:0.003;stroke-linecap:butt;stroke-linejoin:miter;stroke-miterlimit:10;stroke-opacity:1" />
  <path
     id="path202"
     d="m 349.10547,384.61719 c 0,1.72265 1.39453,3.11718 3.11719,3.11718 1.72265,0 3.11718,-1.39453 3.11718,-3.11718 0,-1.72266 -1.39453,-3.1211 -3.11718,-3.1211 -1.72266,0 -3.11719,1.39844 -3.11719,3.1211 z m 0,0"
     style="fill:none;stroke:#ff0000;stroke-width:0.003;stroke-linecap:butt;stroke-linejoin:miter;stroke-miterlimit:10;stroke-opacity:1" />
  <path
     id="path204"
     d="m 352.22266,434.64844 c -1.72266,0 -3.11719,1.39453 -3.11719,3.11718 0,1.72266 1.39453,3.11719 3.11719,3.11719 1.72265,0 3.11718,-1.39453 3.11718,-3.11719 0,-1.72265 -1.39453,-3.11718 -3.11718,-3.11718 z m 0,0"
     style="fill:none;stroke:#ff0000;stroke-width:0.003;stroke-linecap:butt;stroke-linejoin:miter;stroke-miterlimit:10;stroke-opacity:1" />
  <path
     id="path206"
     d="m 136.78906,370.86719 c -1.72265,0 -3.11719,1.39843 -3.11719,3.12109 0,1.71875 1.39454,3.11719 3.11719,3.11719 1.72266,0 3.11719,-1.39844 3.11719,-3.11719 0,-1.72266 -1.39453,-3.12109 -3.11719,-3.12109 z m 0,0"
     style="fill:none;stroke:#ff0000;stroke-width:0.003;stroke-linecap:butt;stroke-linejoin:miter;stroke-miterlimit:10;stroke-opacity:1" />
  <path
     id="path208"
     d="m 229.625,483.54687 c -1.72266,0 -3.12109,1.39454 -3.12109,3.11719 0,1.72266 1.39843,3.11719 3.12109,3.11719 1.71875,0 3.11719,-1.39453 3.11719,-3.11719 0,-1.72265 -1.39844,-3.11719 -3.11719,-3.11719 z m 0,0"
     style="fill:none;stroke:#ff0000;stroke-width:0.003;stroke-linecap:butt;stroke-linejoin:miter;stroke-miterlimit:10;stroke-opacity:1" />
  <path
     id="path210"
     d="m 97.8125,505.51562 c -1.722656,0 -3.117188,1.39454 -3.117188,3.11719 0,1.72266 1.394532,3.11719 3.117188,3.11719 1.722656,0 3.11719,-1.39453 3.11719,-3.11719 0,-1.72265 -1.394534,-3.11719 -3.11719,-3.11719 z m 0,0"
     style="fill:none;stroke:#ff0000;stroke-width:0.003;stroke-linecap:butt;stroke-linejoin:miter;stroke-miterlimit:10;stroke-opacity:1" />
  <path
     id="path212"
     d="m 359.28516,377.17578 h 39.68359 v -39.6875 h -39.68359 z m 0,0"
     style="fill:none;stroke:#ff0000;stroke-width:0.003;stroke-linecap:butt;stroke-linejoin:miter;stroke-miterlimit:10;stroke-opacity:1" />
  <path
     id="path214"
     d="m 359.28516,431.03125 h 39.68359 v -39.68359 h -39.68359 z m 0,0"
     style="fill:none;stroke:#ff0000;stroke-width:0.003;stroke-linecap:butt;stroke-linejoin:miter;stroke-miterlimit:10;stroke-opacity:1" />
  <path
     id="path216"
     d="m 359.28516,484.89063 h 39.68359 v -39.6875 h -39.68359 z m 0,0"
     style="fill:none;stroke:#ff0000;stroke-width:0.003;stroke-linecap:butt;stroke-linejoin:miter;stroke-miterlimit:10;stroke-opacity:1" />
  <path
     id="path218"
     d="m 305.42969,377.17188 h 39.6875 v -39.6875 h -39.6875 z m 0,0"
     style="fill:none;stroke:#ff0000;stroke-width:0.003;stroke-linecap:butt;stroke-linejoin:miter;stroke-miterlimit:10;stroke-opacity:1" />
  <path
     id="path220"
     d="m 305.42969,431.03125 h 39.6875 v -39.6875 h -39.6875 z m 0,0"
     style="fill:none;stroke:#ff0000;stroke-width:0.003;stroke-linecap:butt;stroke-linejoin:miter;stroke-miterlimit:10;stroke-opacity:1" />
  <path
     id="path222"
     d="m 305.42969,484.89063 h 39.6875 v -39.6875 h -39.6875 z m 0,0"
     style="fill:none;stroke:#ff0000;stroke-width:0.003;stroke-linecap:butt;stroke-linejoin:miter;stroke-miterlimit:10;stroke-opacity:1" />
  <path
     id="path224"
     d="m 251.57031,363.72266 h 39.6875 v -39.6875 h -39.6875 z m 0,0"
     style="fill:none;stroke:#ff0000;stroke-width:0.003;stroke-linecap:butt;stroke-linejoin:miter;stroke-miterlimit:10;stroke-opacity:1" />
  <path
     id="path226"
     d="m 251.57031,417.58203 h 39.6875 v -39.6875 h -39.6875 z m 0,0"
     style="fill:none;stroke:#ff0000;stroke-width:0.003;stroke-linecap:butt;stroke-linejoin:miter;stroke-miterlimit:10;stroke-opacity:1" />
  <path
     id="path228"
     d="m 251.57031,471.4375 h 39.6875 v -39.68359 h -39.6875 z m 0,0"
     style="fill:none;stroke:#ff0000;stroke-width:0.003;stroke-linecap:butt;stroke-linejoin:miter;stroke-miterlimit:10;stroke-opacity:1" />
  <path
     id="path230"
     d="m 197.70703,356.98047 h 39.6875 v -39.6875 h -39.6875 z m 0,0"
     style="fill:none;stroke:#ff0000;stroke-width:0.003;stroke-linecap:butt;stroke-linejoin:miter;stroke-miterlimit:10;stroke-opacity:1" />
  <path
     id="path232"
     d="m 197.70703,410.83594 h 39.6875 v -39.6836 h -39.6875 z m 0,0"
     style="fill:none;stroke:#ff0000;stroke-width:0.003;stroke-linecap:butt;stroke-linejoin:miter;stroke-miterlimit:10;stroke-opacity:1" />
  <path
     id="path234"
     d="m 197.70703,464.69531 h 39.6875 v -39.68359 h -39.6875 z m 0,0"
     style="fill:none;stroke:#ff0000;stroke-width:0.003;stroke-linecap:butt;stroke-linejoin:miter;stroke-miterlimit:10;stroke-opacity:1" />
  <path
     id="path236"
     d="m 143.84766,363.71094 h 39.68359 v -39.6875 h -39.68359 z m 0,0"
     style="fill:none;stroke:#ff0000;stroke-width:0.003;stroke-linecap:butt;stroke-linejoin:miter;stroke-miterlimit:10;stroke-opacity:1" />
  <path
     id="path238"
     d="m 143.84766,417.57031 h 39.68359 v -39.6875 h -39.68359 z m 0,0"
     style="fill:none;stroke:#ff0000;stroke-width:0.003;stroke-linecap:butt;stroke-linejoin:miter;stroke-miterlimit:10;stroke-opacity:1" />
  <path
     id="path240"
     d="m 143.84766,471.42578 h 39.68359 v -39.68359 h -39.68359 z m 0,0"
     style="fill:none;stroke:#ff0000;stroke-width:0.003;stroke-linecap:butt;stroke-linejoin:miter;stroke-miterlimit:10;stroke-opacity:1" />
  <path
     id="path242"
     d="M 89.984375,370.46875 H 129.66797 V 330.78516 H 89.984375 Z m 0,0"
     style="fill:none;stroke:#ff0000;stroke-width:0.003;stroke-linecap:butt;stroke-linejoin:miter;stroke-miterlimit:10;stroke-opacity:1" />
  <path
     id="path244"
     d="m 89.984375,424.32813 h 39.683595 v -39.6836 H 89.984375 Z m 0,0"
     style="fill:none;stroke:#ff0000;stroke-width:0.003;stroke-linecap:butt;stroke-linejoin:miter;stroke-miterlimit:10;stroke-opacity:1" />
  <path
     id="path246"
     d="M 89.984375,478.1875 H 129.66797 V 438.50391 H 89.984375 Z m 0,0"
     style="fill:none;stroke:#ff0000;stroke-width:0.003;stroke-linecap:butt;stroke-linejoin:miter;stroke-miterlimit:10;stroke-opacity:1" />
  <path
     id="path248"
     d="m 170.72266,527.14844 h 39.68359 v -39.6836 h -39.68359 z m 0,0"
     style="fill:none;stroke:#ff0000;stroke-width:0.003;stroke-linecap:butt;stroke-linejoin:miter;stroke-miterlimit:10;stroke-opacity:1" />
  <path
     id="path250"
     d="m 117.11328,539.29297 38.33203,-10.26953 -10.26953,-38.33594 -38.33203,10.27344 z m 0,0"
     style="fill:none;stroke:#ff0000;stroke-width:0.003;stroke-linecap:butt;stroke-linejoin:miter;stroke-miterlimit:10;stroke-opacity:1" />
  <path
     id="path252"
     d="M 60.789062,552.69922 95.15625,532.85547 75.3125,498.48828 40.945312,518.32812 Z m 0,0"
     style="fill:none;stroke:#ff0000;stroke-width:0.003;stroke-linecap:butt;stroke-linejoin:miter;stroke-miterlimit:10;stroke-opacity:1" />
</svg>
